<?xml version="1.0" encoding="utf-8"?>
<!-- Generator: Adobe Illustrator 19.2.0, SVG Export Plug-In . SVG Version: 6.00 Build 0)  -->
<svg version="1.1" id="Layer_1" xmlns="http://www.w3.org/2000/svg" xmlns:xlink="http://www.w3.org/1999/xlink" x="0px" y="0px"
	 viewBox="0 0 1024 768" style="enable-background:new 0 0 1024 768;" xml:space="preserve">
<style type="text/css">
	.st0{fill:none;stroke:#4399EE;stroke-width:4;stroke-miterlimit:10;}
	.st1{fill:#4399EE;}
	.st2{fill:none;stroke:#FFFFFF;stroke-width:4;stroke-miterlimit:10;}
</style>
<rect x="528" y="39" class="st0" width="425" height="230"/>
<rect x="71" y="499" class="st0" width="425" height="230"/>
<rect x="528" y="269" class="st0" width="425" height="230"/>
<rect x="528" y="499" class="st0" width="425" height="199"/>
<rect x="71" y="39" class="st0" width="425" height="230"/>
<rect x="71" y="269" class="st0" width="425" height="230"/>
<rect x="326" y="125" class="st0" width="150" height="144"/>
<rect x="225" y="326" class="st0" width="116" height="140"/>
<rect x="90" y="326" class="st0" width="116" height="140"/>
<rect x="90" y="326" class="st0" width="116" height="98"/>
<rect x="225" y="326" class="st0" width="116" height="98"/>
<rect x="360" y="326" class="st0" width="116" height="98"/>
<rect x="360" y="326" class="st0" width="116" height="140"/>
<g>
	<rect x="90" y="424" class="st1" width="116" height="42"/>
	<rect x="225" y="424" class="st1" width="116" height="42"/>
	<rect x="360" y="424" class="st1" width="116" height="42"/>
</g>
<rect x="100" y="131" class="st0" width="174" height="30"/>
<rect x="100" y="184" class="st0" width="132" height="26"/>
<rect x="528" y="698" class="st0" width="425" height="31"/>
<g>
	<rect x="629" y="545" class="st0" width="222" height="22"/>
	<g>
		<rect x="675" y="587" class="st0" width="132" height="26"/>
		<rect x="675" y="627" class="st0" width="132" height="26"/>
	</g>
</g>
<rect x="100" y="62" class="st0" width="69" height="26"/>
<line class="st0" x1="476" y1="124.7" x2="325.7" y2="268.6"/>
<line class="st0" x1="325.7" y1="124.7" x2="476" y2="268.6"/>
<g>
	<line class="st0" x1="169.5" y1="353.9" x2="126.2" y2="395.3"/>
	<line class="st0" x1="126.2" y1="353.9" x2="169.5" y2="395.3"/>
</g>
<g>
	<line class="st0" x1="304.5" y1="353.9" x2="261.2" y2="395.3"/>
	<line class="st0" x1="261.2" y1="353.9" x2="304.5" y2="395.3"/>
</g>
<g>
	<line class="st0" x1="439.5" y1="353.9" x2="396.2" y2="395.3"/>
	<line class="st0" x1="396.2" y1="353.9" x2="439.5" y2="395.3"/>
</g>
<line class="st0" x1="326" y1="75" x2="352" y2="75"/>
<g>
	<line class="st2" x1="105" y1="435" x2="192" y2="435"/>
	<line class="st2" x1="105" y1="445" x2="192" y2="445"/>
	<line class="st2" x1="105" y1="455" x2="148" y2="455"/>
</g>
<rect x="285" y="544" class="st1" width="174" height="144"/>
<g>
	<g>
		<line class="st2" x1="299" y1="561" x2="445" y2="561"/>
		<line class="st2" x1="299" y1="571" x2="445" y2="571"/>
		<line class="st2" x1="299" y1="581" x2="371" y2="581"/>
	</g>
	<g>
		<line class="st2" x1="299" y1="591" x2="445" y2="591"/>
		<line class="st2" x1="299" y1="601" x2="445" y2="601"/>
		<line class="st2" x1="299" y1="611" x2="371" y2="611"/>
	</g>
	<g>
		<line class="st2" x1="299" y1="621" x2="445" y2="621"/>
		<line class="st2" x1="299" y1="631" x2="445" y2="631"/>
		<line class="st2" x1="299" y1="641" x2="371" y2="641"/>
	</g>
	<g>
		<line class="st2" x1="299" y1="651" x2="445" y2="651"/>
		<line class="st2" x1="299" y1="661" x2="445" y2="661"/>
		<line class="st2" x1="299" y1="671" x2="371" y2="671"/>
	</g>
</g>
<rect x="109" y="544" class="st0" width="150" height="144"/>
<line class="st0" x1="258.7" y1="543.7" x2="108.3" y2="687.6"/>
<line class="st0" x1="108.3" y1="543.7" x2="258.7" y2="687.6"/>
<rect x="565" y="82" transform="matrix(-1 -1.224647e-016 1.224647e-016 -1 1304 308)" class="st1" width="174" height="144"/>
<rect x="765" y="82" transform="matrix(-1 -4.489887e-011 4.489887e-011 -1 1680 308)" class="st0" width="150" height="144"/>
<line class="st0" x1="765.7" y1="81.7" x2="916" y2="225.6"/>
<g>
	<g>
		<line class="st2" x1="579" y1="99" x2="725" y2="99"/>
		<line class="st2" x1="579" y1="109" x2="725" y2="109"/>
		<line class="st2" x1="579" y1="119" x2="651" y2="119"/>
	</g>
	<g>
		<line class="st2" x1="579" y1="129" x2="725" y2="129"/>
		<line class="st2" x1="579" y1="139" x2="725" y2="139"/>
		<line class="st2" x1="579" y1="149" x2="651" y2="149"/>
	</g>
	<g>
		<line class="st2" x1="579" y1="159" x2="725" y2="159"/>
		<line class="st2" x1="579" y1="169" x2="725" y2="169"/>
		<line class="st2" x1="579" y1="179" x2="651" y2="179"/>
	</g>
	<g>
		<line class="st2" x1="579" y1="189" x2="725" y2="189"/>
		<line class="st2" x1="579" y1="199" x2="725" y2="199"/>
		<line class="st2" x1="579" y1="209" x2="651" y2="209"/>
	</g>
</g>
<line class="st0" x1="916" y1="81.7" x2="765.7" y2="225.6"/>
<rect x="742" y="312" class="st1" width="174" height="144"/>
<rect x="566" y="312" class="st0" width="150" height="144"/>
<line class="st0" x1="715.3" y1="311.7" x2="565" y2="455.6"/>
<g>
	<g>
		<line class="st2" x1="756" y1="329" x2="902" y2="329"/>
		<line class="st2" x1="756" y1="339" x2="902" y2="339"/>
		<line class="st2" x1="756" y1="349" x2="828" y2="349"/>
	</g>
	<g>
		<line class="st2" x1="756" y1="359" x2="902" y2="359"/>
		<line class="st2" x1="756" y1="369" x2="902" y2="369"/>
		<line class="st2" x1="756" y1="379" x2="828" y2="379"/>
	</g>
	<g>
		<line class="st2" x1="756" y1="389" x2="902" y2="389"/>
		<line class="st2" x1="756" y1="399" x2="902" y2="399"/>
		<line class="st2" x1="756" y1="409" x2="828" y2="409"/>
	</g>
	<g>
		<line class="st2" x1="756" y1="419" x2="902" y2="419"/>
		<line class="st2" x1="756" y1="429" x2="902" y2="429"/>
		<line class="st2" x1="756" y1="439" x2="828" y2="439"/>
	</g>
</g>
<line class="st0" x1="565" y1="311.7" x2="715.3" y2="455.6"/>
<g>
	<line class="st2" x1="240" y1="435" x2="327" y2="435"/>
	<line class="st2" x1="240" y1="445" x2="327" y2="445"/>
	<line class="st2" x1="240" y1="455" x2="283" y2="455"/>
</g>
<g>
	<line class="st2" x1="375" y1="435" x2="462" y2="435"/>
	<line class="st2" x1="375" y1="445" x2="462" y2="445"/>
	<line class="st2" x1="375" y1="455" x2="418" y2="455"/>
</g>
<line class="st0" x1="369" y1="75" x2="395" y2="75"/>
<path class="st0" d="M476,75c0,6.6-5.4,12-12,12h-38c-6.6,0-12-5.4-12-12v0c0-6.6,5.4-12,12-12h38C470.6,63,476,68.4,476,75L476,75z
	"/>
<circle class="st0" cx="148" cy="375" r="30.1"/>
<circle class="st0" cx="283" cy="375" r="30.1"/>
<circle class="st0" cx="418" cy="375" r="30.1"/>
</svg>
